<svg xmlns="http://www.w3.org/2000/svg"><symbol viewBox="0 0 32 32" id="icon-add"><title>add</title> <g id="svgstore2b8479a60ce547c9b989b67107ad79d0icomoon-ignore"> <line stroke-width="1" x1="" y1="" x2="" y2="" stroke="#449FDB" opacity=""/> </g> <path d="M31 12h-11v-11c0-0.552-0.448-1-1-1h-6c-0.552 0-1 0.448-1 1v11h-11c-0.552 0-1 0.448-1 1v6c0 0.552 0.448 1 1 1h11v11c0 0.552 0.448 1 1 1h6c0.552 0 1-0.448 1-1v-11h11c0.552 0 1-0.448 1-1v-6c0-0.552-0.448-1-1-1z"/> </symbol><symbol viewBox="0 0 32 32" id="icon-bug"><title>bug</title> <path d="M32 18v-2h-6.040c-0.183-2.271-0.993-4.345-2.24-6.008h5.061l2.189-8.758-1.94-0.485-1.811 7.242h-5.459c-0.028-0.022-0.056-0.043-0.084-0.064 0.21-0.609 0.324-1.263 0.324-1.944 0-3.305-2.686-5.984-6-5.984s-6 2.679-6 5.984c0 0.68 0.114 1.334 0.324 1.944-0.028 0.021-0.056 0.043-0.084 0.064h-5.459l-1.811-7.242-1.94 0.485 2.189 8.758h5.061c-1.246 1.663-2.056 3.736-2.24 6.008h-6.040v2h6.043c0.119 1.427 0.485 2.775 1.051 3.992h-3.875l-2.189 8.757 1.94 0.485 1.811-7.243h3.511c1.834 2.439 4.606 3.992 7.708 3.992s5.874-1.554 7.708-3.992h3.511l1.811 7.243 1.94-0.485-2.189-8.757h-3.875c0.567-1.217 0.932-2.565 1.051-3.992h6.043z"/> </symbol><symbol viewBox="0 0 32 32" id="icon-checkbox-checked"><title>checkbox-checked</title> <g id="svgstore06497d3f2ddda9264bb2287019a41e4bicomoon-ignore"> <line stroke-width="1" x1="" y1="" x2="" y2="" stroke="#449FDB" opacity=""/> </g> <path d="M0 0v32h32v-32h-32zM30 30h-28v-28h28v28zM24 7l-10 10-6-6-4 4 10 10 14-14-4-4z"/> </symbol><symbol viewBox="0 0 32 32" id="icon-checkbox-unchecked"><title>checkbox-unchecked</title> <g id="svgstoree7821bbecbe1c715f7026ddb2a605355icomoon-ignore"> <line stroke-width="1" x1="" y1="" x2="" y2="" stroke="#449FDB" opacity=""/> </g> <path d="M0 0v32h32v-32h-32zM30 30h-28v-28h28v28z"/> </symbol><symbol viewBox="0 0 32 32" id="icon-clone"><title>clone</title> <path d="M20 8v-8h-14l-6 6v18h12v8h20v-24h-12zM6 2.828v3.172h-3.172l3.172-3.172zM2 22v-14h6v-6h10v6l-6 6v8h-10zM18 10.828v3.172h-3.172l3.172-3.172zM30 30h-16v-14h6v-6h10v20z"/> </symbol><symbol viewBox="0 0 32 32" id="icon-close"><title>close</title> <path d="M31.708 25.708c-0-0-0-0-0-0l-9.708-9.708 9.708-9.708c0-0 0-0 0-0 0.105-0.105 0.18-0.227 0.229-0.357 0.133-0.356 0.057-0.771-0.229-1.057l-4.586-4.586c-0.286-0.286-0.702-0.361-1.057-0.229-0.13 0.048-0.252 0.124-0.357 0.228 0 0-0 0-0 0l-9.708 9.708-9.708-9.708c-0-0-0-0-0-0-0.105-0.104-0.227-0.18-0.357-0.228-0.356-0.133-0.771-0.057-1.057 0.229l-4.586 4.586c-0.286 0.286-0.361 0.702-0.229 1.057 0.049 0.13 0.124 0.252 0.229 0.357 0 0 0 0 0 0l9.708 9.708-9.708 9.708c-0 0-0 0-0 0-0.104 0.105-0.18 0.227-0.229 0.357-0.133 0.355-0.057 0.771 0.229 1.057l4.586 4.586c0.286 0.286 0.702 0.361 1.057 0.229 0.13-0.049 0.252-0.124 0.357-0.229 0-0 0-0 0-0l9.708-9.708 9.708 9.708c0 0 0 0 0 0 0.105 0.105 0.227 0.18 0.357 0.229 0.356 0.133 0.771 0.057 1.057-0.229l4.586-4.586c0.286-0.286 0.362-0.702 0.229-1.057-0.049-0.13-0.124-0.252-0.229-0.357z"/> </symbol><symbol viewBox="0 0 32 32" id="icon-contract"><title>contract</title> <g id="svgstore179660f7e364145d58602ff8895f0ee9icomoon-ignore"> <line stroke-width="1" x1="" y1="" x2="" y2="" stroke="#449FDB" opacity=""/> </g> <path d="M2 18h12v12l-4.321-4.321-6.313 6.313-3.359-3.359 6.313-6.313zM25.679 22.321l6.313 6.313-3.359 3.359-6.313-6.313-4.321 4.321v-12h12zM30 14h-12v-12l4.321 4.321 6.313-6.313 3.359 3.359-6.313 6.313zM9.679 6.321l4.321-4.321v12h-12l4.321-4.321-6.313-6.313 3.359-3.359z"/> </symbol><symbol viewBox="0 0 32 32" id="icon-edit"><title>edit</title> <path d="M27 0c2.761 0 5 2.239 5 5 0 1.126-0.372 2.164-1 3l-2 2-7-7 2-2c0.836-0.628 1.874-1 3-1zM2 23l-2 9 9-2 18.5-18.5-7-7-18.5 18.5zM22.362 11.362l-14 14-1.724-1.724 14-14 1.724 1.724z"/> </symbol><symbol viewBox="0 0 32 32" id="icon-expand"><title>expand</title> <g id="svgstored561b43e7f29a2e1a32a341194f3459ficomoon-ignore"> <line stroke-width="1" x1="" y1="" x2="" y2="" stroke="#449FDB" opacity=""/> </g> <path d="M32 0v12l-4.321-4.321-6.625 6.625-3.359-3.359 6.625-6.625-4.321-4.321zM7.679 4.321l6.625 6.625-3.359 3.359-6.625-6.625-4.321 4.321v-12h12zM27.679 24.321l4.321-4.321v12h-12l4.321-4.321-6.625-6.625 3.359-3.359zM14.304 21.054l-6.625 6.625 4.321 4.321h-12v-12l4.321 4.321 6.625-6.625z"/> </symbol><symbol viewBox="0 0 32 32" id="icon-filter"><title>filter</title> <path d="M16 0c-8.837 0-16 2.239-16 5v3l12 12v10c0 1.105 1.791 2 4 2s4-0.895 4-2v-10l12-12v-3c0-2.761-7.163-5-16-5zM2.95 4.338c0.748-0.427 1.799-0.832 3.040-1.171 2.748-0.752 6.303-1.167 10.011-1.167s7.262 0.414 10.011 1.167c1.241 0.34 2.292 0.745 3.040 1.171 0.494 0.281 0.76 0.519 0.884 0.662-0.124 0.142-0.391 0.38-0.884 0.662-0.748 0.427-1.8 0.832-3.040 1.171-2.748 0.752-6.303 1.167-10.011 1.167s-7.262-0.414-10.011-1.167c-1.24-0.34-2.292-0.745-3.040-1.171-0.494-0.282-0.76-0.519-0.884-0.662 0.124-0.142 0.391-0.38 0.884-0.662z"/> </symbol><symbol viewBox="0 0 32 32" id="icon-fire"><title>fire</title> <g id="svgstore6ed43fd6c99bf189de29699a38a2f26bicomoon-ignore"> <line stroke-width="1" x1="" y1="" x2="" y2="" stroke="#449FDB" opacity=""/> </g> <path d="M10.031 32c-2.133-4.438-0.997-6.981 0.642-9.376 1.795-2.624 2.258-5.221 2.258-5.221s1.411 1.834 0.847 4.703c2.493-2.775 2.963-7.196 2.587-8.889 5.635 3.938 8.043 12.464 4.798 18.783 17.262-9.767 4.294-24.38 2.036-26.027 0.753 1.646 0.895 4.433-0.625 5.785-2.573-9.759-8.937-11.759-8.937-11.759 0.753 5.033-2.728 10.536-6.084 14.648-0.118-2.007-0.243-3.392-1.298-5.312-0.237 3.646-3.023 6.617-3.777 10.27-1.022 4.946 0.765 8.568 7.555 12.394z"/> </symbol><symbol viewBox="0 0 32 32" id="icon-info"><title>info</title> <g id="svgstore88f55d07846a8d01924ee7317f1aed49icomoon-ignore"> <line stroke-width="1" x1="" y1="" x2="" y2="" stroke="#449FDB" opacity=""/> </g> <path d="M16 0c-8.837 0-16 7.163-16 16s7.163 16 16 16 16-7.163 16-16-7.163-16-16-16zM16 29c-7.18 0-13-5.82-13-13s5.82-13 13-13 13 5.82 13 13-5.82 13-13 13zM14 8h4v4h-4zM20 24h-8v-2h2v-6h-2v-2h6v8h2z"/> </symbol><symbol viewBox="0 0 32 32" id="icon-menu"><title>menu</title> <g id="svgstoree5130b99ceebe600156b4ed8bc6c7459icomoon-ignore"> <line stroke-width="1" x1="" y1="" x2="" y2="" stroke="#449FDB" opacity=""/> </g> <path d="M2 6h28v6h-28zM2 14h28v6h-28zM2 22h28v6h-28z"/> </symbol><symbol viewBox="0 0 32 32" id="icon-minus"><title>minus</title> <g id="svgstored46724b6f77b281b6efe0791cfca8ef4icomoon-ignore"> <line stroke-width="1" x1="" y1="" x2="" y2="" stroke="#449FDB" opacity=""/> </g> <path d="M0 13v6c0 0.552 0.448 1 1 1h30c0.552 0 1-0.448 1-1v-6c0-0.552-0.448-1-1-1h-30c-0.552 0-1 0.448-1 1z"/> </symbol><symbol viewBox="0 0 32 32" id="icon-query"><title>query</title> <path d="M6 4l20 12-20 12z"/> </symbol><symbol viewBox="0 0 28 28" id="icon-question-circle"><title>question-circle</title> <path d="M14 21.5v-3q0-0.219-0.141-0.359t-0.359-0.141h-3q-0.219 0-0.359 0.141t-0.141 0.359v3q0 0.219 0.141 0.359t0.359 0.141h3q0.219 0 0.359-0.141t0.141-0.359zM18 11q0-1.375-0.867-2.547t-2.164-1.813-2.656-0.641q-3.797 0-5.797 3.328-0.234 0.375 0.125 0.656l2.063 1.563q0.109 0.094 0.297 0.094 0.25 0 0.391-0.187 0.828-1.062 1.344-1.437 0.531-0.375 1.344-0.375 0.75 0 1.336 0.406t0.586 0.922q0 0.594-0.313 0.953t-1.062 0.703q-0.984 0.438-1.805 1.352t-0.82 1.961v0.562q0 0.219 0.141 0.359t0.359 0.141h3q0.219 0 0.359-0.141t0.141-0.359q0-0.297 0.336-0.773t0.852-0.773q0.5-0.281 0.766-0.445t0.719-0.547 0.695-0.75 0.438-0.945 0.195-1.266zM24 14q0 3.266-1.609 6.023t-4.367 4.367-6.023 1.609-6.023-1.609-4.367-4.367-1.609-6.023 1.609-6.023 4.367-4.367 6.023-1.609 6.023 1.609 4.367 4.367 1.609 6.023z"/> </symbol><symbol viewBox="0 0 32 32" id="icon-refresh"><title>refresh</title> <path d="M32 12h-12l4.485-4.485c-2.267-2.266-5.28-3.515-8.485-3.515s-6.219 1.248-8.485 3.515c-2.266 2.267-3.515 5.28-3.515 8.485s1.248 6.219 3.515 8.485c2.267 2.266 5.28 3.515 8.485 3.515s6.219-1.248 8.485-3.515c0.189-0.189 0.371-0.384 0.546-0.583l3.010 2.634c-2.933 3.349-7.239 5.464-12.041 5.464-8.837 0-16-7.163-16-16s7.163-16 16-16c4.418 0 8.418 1.791 11.313 4.687l4.687-4.687v12z"/> </symbol><symbol viewBox="0 0 32 32" id="icon-remove"><title>remove</title> <g id="svgstorec68359c9b546d029de22d6841f415188icomoon-ignore"> <line stroke-width="1" x1="" y1="" x2="" y2="" stroke="#449FDB" opacity=""/> </g> <path d="M6 32h20l2-22h-24zM20 4v-4h-8v4h-10v6l2-2h24l2 2v-6h-10zM18 4h-4v-2h4v2z"/> </symbol><symbol viewBox="0 0 28 28" id="icon-resize"><title>resize</title> <path d="M28 18.5v3q0 0.203-0.148 0.352t-0.352 0.148h-21.5v3q0 0.203-0.148 0.352t-0.352 0.148q-0.187 0-0.375-0.156l-4.984-5q-0.141-0.141-0.141-0.344 0-0.219 0.141-0.359l5-5q0.141-0.141 0.359-0.141 0.203 0 0.352 0.148t0.148 0.352v3h21.5q0.203 0 0.352 0.148t0.148 0.352zM28 10q0 0.219-0.141 0.359l-5 5q-0.141 0.141-0.359 0.141-0.203 0-0.352-0.148t-0.148-0.352v-3h-21.5q-0.203 0-0.352-0.148t-0.148-0.352v-3q0-0.203 0.148-0.352t0.352-0.148h21.5v-3q0-0.219 0.141-0.359t0.359-0.141q0.187 0 0.375 0.156l4.984 4.984q0.141 0.141 0.141 0.359z"/> </symbol><symbol viewBox="0 0 32 32" id="icon-revert"><title>revert</title> <path d="M16 2c-4.418 0-8.418 1.791-11.313 4.687l-4.686-4.687v12h12l-4.485-4.485c2.172-2.172 5.172-3.515 8.485-3.515 6.627 0 12 5.373 12 12 0 3.584-1.572 6.801-4.063 9l2.646 3c3.322-2.932 5.417-7.221 5.417-12 0-8.837-7.163-16-16-16z"/> </symbol><symbol viewBox="0 0 32 32" id="icon-run"><title>run</title> <path d="M12 0l-12 16h12l-8 16 28-20h-16l12-12z"/> </symbol><symbol viewBox="0 0 32 32" id="icon-save"><title>save</title> <path d="M6 28h20c3.314 0 6-2.686 6-6h-32c0 3.314 2.686 6 6 6zM26 24h2v2h-2v-2zM30 4h-28l-2 16h32z"/> </symbol><symbol viewBox="0 0 16 28" id="icon-sort-asc"><title>sort-asc</title> <path fill="#444444" d="M16 11q0 0.406-0.297 0.703t-0.703 0.297h-14q-0.406 0-0.703-0.297t-0.297-0.703 0.297-0.703l7-7q0.297-0.297 0.703-0.297t0.703 0.297l7 7q0.297 0.297 0.297 0.703z"/> </symbol><symbol viewBox="0 0 16 28" id="icon-sort-desc"><title>sort-desc</title> <path fill="#444444" d="M16 17q0 0.406-0.297 0.703l-7 7q-0.297 0.297-0.703 0.297t-0.703-0.297l-7-7q-0.297-0.297-0.297-0.703t0.297-0.703 0.703-0.297h14q0.406 0 0.703 0.297t0.297 0.703z"/> </symbol><symbol viewBox="0 0 16 28" id="icon-sort"><title>sort</title> <path fill="#444444" d="M16 17q0 0.406-0.297 0.703l-7 7q-0.297 0.297-0.703 0.297t-0.703-0.297l-7-7q-0.297-0.297-0.297-0.703t0.297-0.703 0.703-0.297h14q0.406 0 0.703 0.297t0.297 0.703zM16 11q0 0.406-0.297 0.703t-0.703 0.297h-14q-0.406 0-0.703-0.297t-0.297-0.703 0.297-0.703l7-7q0.297-0.297 0.703-0.297t0.703 0.297l7 7q0.297 0.297 0.297 0.703z"/> </symbol><symbol viewBox="0 0 32 32" id="icon-spam"><title>spam</title> <g id="svgstore0d93e4db58a431922dd8b60d884c88beicomoon-ignore"> <line stroke-width="1" x1="" y1="" x2="" y2="" stroke="#449FDB" opacity=""/> </g> <path d="M32 23l-9-23h-14l-9 9v14l9 9h14l9-9v-14l-9-9zM18 26h-4v-4h4v4zM18 18h-4v-12h4v12z"/> </symbol><symbol viewBox="0 0 32 32" id="icon-stack"><title>stack</title> <g id="svgstore22d135ad7496dab235315ce07cce6abbicomoon-ignore"> <line stroke-width="1" x1="" y1="" x2="" y2="" stroke="#449FDB" opacity=""/> </g> <path d="M32 10l-16-8-16 8 16 8 16-8zM16 4.655l10.689 5.345-10.689 5.345-10.689-5.345 10.689-5.345zM28.795 14.398l3.205 1.602-16 8-16-8 3.205-1.602 12.795 6.398zM28.795 20.398l3.205 1.602-16 8-16-8 3.205-1.602 12.795 6.398z"/> </symbol><symbol viewBox="0 0 32 32" id="icon-submit"><title>submit</title> <path d="M6 4l20 12-20 12z"/> </symbol><symbol viewBox="0 0 32 32" id="icon-warning"><title>warning</title> <g id="svgstore35741ca44ae11df82ac487b371edf10ficomoon-ignore"> <line stroke-width="1" x1="" y1="" x2="" y2="" stroke="#449FDB" opacity=""/> </g> <path d="M16 4.96l-10.776 23.040h21.552l-10.776-23.040zM16 0v0c0.69 0 1.379 0.465 1.903 1.395l13.659 27.222c1.047 1.86 0.156 3.383-1.978 3.383h-27.166c-2.135 0-3.025-1.522-1.978-3.383l13.659-27.222c0.523-0.93 1.213-1.395 1.903-1.395zM14 24c0-1.105 0.895-2 2-2s2 0.895 2 2c0 1.105-0.895 2-2 2s-2-0.895-2-2zM16 12c1.105 0 2 0.895 2 2l-0.625 6h-2.75l-0.625-6c0-1.105 0.895-2 2-2z"/> </symbol></svg>